#!OML:ASF G:\JayActor3\Patient Classification 1\Patient 1\Session 6\male.ASF
:FULLY-SPECIFIED
:DEGREES
1595
root 5.08223 16.5437 -24.0663 192.98 -45.9359 -174.223
lowerback 25.5484 -1.98409 3.29958
upperback 6.30563 -2.50135 0.606145
thorax -7.2688 -1.58018 -0.406728
lowerneck -3.25584 -1.31195 2.12772
upperneck 16.3954 -2.52439 -0.00999488
head 5.4483 -1.30177 -0.516576
rclavicle 2.62396e-014 8.54774e-014
rhumerus -34.9391 10.7859 -88.0042
rradius 47.2386
rwrist 2.09997
rhand -13.2702 -4.85308
rfingers 7.12502
rthumb 12.8327 -34.4386
lclavicle 2.62396e-014 8.54774e-014
lhumerus -36.8289 -21.0134 87.3056
lradius 44.1891
lwrist 26.8859
lhand -18.3549 4.91246
lfingers 7.12502
lthumb 7.92777 34.7438
rfemur -40.4475 7.68138 25.0218
rtibia 37.3791
rfoot -13.2191 -7.03808
rtoes 13.5639
lfemur -33.4961 10.1881 -20.3496
ltibia 32.6296
lfoot -14.9496 1.76818
ltoes 1.23606
1596
root 5.06985 16.5461 -24.0834 192.428 -45.9758 -174.191
lowerback 25.4002 -2.00438 3.23694
upperback 6.30848 -2.54628 0.612196
thorax -7.19055 -1.59954 -0.356157
lowerneck -3.44529 -1.33921 2.04105
upperneck 16.8345 -2.59695 0.0233776
head 5.61861 -1.34391 -0.502928
rclavicle -4.33351e-014 7.95139e-015
rhumerus -34.9214 10.8284 -87.9849
rradius 47.2203
rwrist 2.05476
rhand -13.3585 -4.75013
rfingers 7.12502
rthumb 12.7476 -34.341
lclavicle -4.33351e-014 7.95139e-015
lhumerus -36.5762 -20.7694 87.1055
lradius 44.1528
lwrist 26.8885
lhand -18.5241 4.91806
lfingers 7.12502
lthumb 7.76453 34.7555
rfemur -39.6688 7.68556 25.1213
rtibia 37.2252
rfoot -13.3674 -7.09212
rtoes 13.5968
lfemur -32.6555 10.125 -20.1741
ltibia 32.3761
lfoot -15.0163 1.81084
ltoes 1.25054
1597
root 5.05726 16.5486 -24.1004 191.879 -46.0182 -174.162
lowerback 25.2386 -2.02116 3.17899
upperback 6.31709 -2.58663 0.615081
thorax -7.09915 -1.61689 -0.314074
lowerneck -3.61145 -1.37159 1.97074
upperneck 17.2401 -2.67448 0.0476545
head 5.77478 -1.38815 -0.494772
rclavicle -3.57812e-015 4.73108e-014
rhumerus -34.8975 10.8637 -87.9685
rradius 47.2051
rwrist 1.99844
rhand -13.4653 -4.65107
rfingers 7.12502
rthumb 12.6446 -34.2483
lclavicle -3.57812e-015 4.73108e-014
lhumerus -36.2903 -20.509 86.9025
lradius 44.1055
lwrist 26.8861
lhand -18.7178 4.92694
lfingers 7.12502
lthumb 7.5775 34.7712
rfemur -38.8896 7.69348 25.2146
rtibia 37.0672
rfoot -13.5162 -7.15404
rtoes 13.6208
lfemur -31.8128 10.0524 -20.0019
ltibia 32.1135
lfoot -15.0775 1.85112
ltoes 1.28505
1598
root 5.04451 16.5512 -24.1174 191.346 -46.0648 -174.148
lowerback 25.0673 -2.0359 3.11428
upperback 6.32914 -2.62651 0.617175
thorax -6.99872 -1.634 -0.26986
lowerneck -3.76574 -1.40589 1.89778
upperneck 17.633 -2.75425 0.0732404
head 5.92554 -1.43373 -0.485902
rclavicle -7.95139e-016 -2.62396e-014
rhumerus -34.8664 10.9022 -87.9518
rradius 47.1946
rwrist 1.94815
rhand -13.5801 -4.58519
rfingers 7.12502
rthumb 12.5339 -34.1893
lclavicle -7.95139e-016 -2.62396e-014
lhumerus -35.9767 -20.2263 86.7003
lradius 44.0521
lwrist 26.8852
lhand -18.9114 4.95048
lfingers 7.12502
lthumb 7.39067 34.8014
rfemur -38.1149 7.70275 25.2929
rtibia 36.9087
rfoot -13.6672 -7.22324
rtoes 13.6377
lfemur -30.9704 9.96863 -19.843
ltibia 31.8418
lfoot -15.1338 1.88978
ltoes 1.33468
1599
root 5.03204 16.5534 -24.134 190.828 -46.1144 -174.147
lowerback 24.8881 -2.04793 3.04432
upperback 6.34341 -2.66449 0.616874
thorax -6.89152 -1.65019 -0.226475
lowerneck -3.91903 -1.44169 1.81841
upperneck 18.0163 -2.83799 0.115484
head 6.07405 -1.48045 -0.471113
rclavicle -6.40087e-014 5.96354e-014
rhumerus -34.8242 10.9321 -87.9335
rradius 47.1794
rwrist 1.90277
rhand -13.6864 -4.54792
rfingers 7.12502
rthumb 12.4315 -34.1582
lclavicle -6.40087e-014 5.96354e-014
lhumerus -35.6379 -19.933 86.4962
lradius 43.9947
lwrist 26.8754
lhand -19.078 4.98204
lfingers 7.12502
lthumb 7.22991 34.8385
rfemur -37.3527 7.71805 25.3582
rtibia 36.7526
rfoot -13.8162 -7.30439
rtoes 13.6424
lfemur -30.1361 9.87534 -19.6967
ltibia 31.5644
lfoot -15.1837 1.92973
ltoes 1.37806
1600
root 5.01945 16.5556 -24.1506 190.323 -46.172 -174.155
lowerback 24.7068 -2.06032 2.97532
upperback 6.35412 -2.7019 0.614875
thorax -6.78726 -1.66598 -0.185881
lowerneck -4.06433 -1.47872 1.74552
upperneck 18.3964 -2.92384 0.152807
head 6.22066 -1.52833 -0.459215
rclavicle -6.36111e-015 -1.39149e-014
rhumerus -34.7879 10.958 -87.9178
rradius 47.1689
rwrist 1.86673
rhand -13.8033 -4.55087
rfingers 7.12502
rthumb 12.3187 -34.168
lclavicle -6.36111e-015 -1.39149e-014
lhumerus -35.2922 -19.6415 86.2956
lradius 43.9459
lwrist 26.8695
lhand -19.2239 5.02469
lfingers 7.12502
lthumb 7.089 34.886
rfemur -36.5988 7.73195 25.4149
rtibia 36.5991
rfoot -13.9723 -7.38868
rtoes 13.6621
lfemur -29.3083 9.77333 -19.56
ltibia 31.2839
lfoot -15.2335 1.96531
ltoes 1.42556
1601
root 5.00713 16.5574 -24.167 189.823 -46.2316 -174.162
lowerback 24.5262 -2.07035 2.9088
upperback 6.36141 -2.73482 0.612285
thorax -6.68689 -1.67957 -0.148785
lowerneck -4.21747 -1.51834 1.67518
upperneck 18.7778 -3.01531 0.196577
head 6.36974 -1.57822 -0.446441
rclavicle -3.33958e-014 -2.34566e-014
rhumerus -34.756 10.9705 -87.9008
rradius 47.1538
rwrist 1.83892
rhand -13.902 -4.59398
rfingers 7.12502
rthumb 12.2236 -34.2168
lclavicle -3.33958e-014 -2.34566e-014
lhumerus -34.9441 -19.3586 86.0977
lradius 43.9121
lwrist 26.8668
lhand -19.3407 5.08193
lfingers 7.12502
lthumb 6.97623 34.947
rfemur -35.854 7.75144 25.4714
rtibia 36.4466
rfoot -14.1309 -7.48147
rtoes 13.6716
lfemur -28.491 9.66933 -19.4263
ltibia 31.0049
lfoot -15.2825 1.99973
ltoes 1.45889
1602
root 4.99467 16.5589 -24.1834 189.314 -46.2912 -174.148
lowerback 24.3434 -2.08165 2.85579
upperback 6.36596 -2.76524 0.613373
thorax -6.58853 -1.69206 -0.116315
lowerneck -4.35384 -1.55353 1.60984
upperneck 19.1432 -3.09937 0.232122
head 6.51125 -1.62498 -0.436477
rclavicle -1.57835e-013 -2.0276e-014
rhumerus -34.731 10.9783 -87.8797
rradius 47.1389
rwrist 1.80559
rhand -13.9741 -4.61336
rfingers 7.12502
rthumb 12.1541 -34.2403
lclavicle -1.57835e-013 -2.0276e-014
lhumerus -34.6013 -19.0717 85.9017
lradius 43.9004
lwrist 26.8607
lhand -19.4345 5.13267
lfingers 7.12502
lthumb 6.88577 35.0007
rfemur -35.1123 7.77839 25.542
rtibia 36.2915
rfoot -14.2927 -7.57899
rtoes 13.6798
lfemur -27.6818 9.56324 -19.2804
ltibia 30.729
lfoot -15.3328 2.03736
ltoes 1.48448
1603
root 4.98184 16.5602 -24.1997 188.799 -46.3475 -174.125
lowerback 24.1576 -2.09251 2.81278
upperback 6.37209 -2.79295 0.612701
thorax -6.48718 -1.70345 -0.092598
lowerneck -4.48285 -1.58702 1.54758
upperneck 19.494 -3.1807 0.267213
head 6.64742 -1.67024 -0.426945
rclavicle -5.12864e-014 -4.92986e-014
rhumerus -34.7182 10.9886 -87.8646
rradius 47.1403
rwrist 1.77476
rhand -14.0351 -4.66037
rfingers 7.12502
rthumb 12.0953 -34.2908
lclavicle -5.12864e-014 -4.92986e-014
lhumerus -34.2604 -18.7822 85.7064
lradius 43.9105
lwrist 26.8563
lhand -19.5189 5.17663
lfingers 7.12502
lthumb 6.80421 35.0473
rfemur -34.3686 7.80845 25.6199
rtibia 36.1327
rfoot -14.4545 -7.67732
rtoes 13.6748
lfemur -26.8754 9.45394 -19.1307
ltibia 30.4595
lfoot -15.3894 2.08147
ltoes 1.49816
